<svg width="40" height="40" fill="none" xmlns="http://www.w3.org/2000/svg"><path d="M16.39 5.117c1.76-2.495 5.46-2.495 7.22 0a4.418 4.418 0 0 0 4.362 1.806c3.008-.52 5.624 2.097 5.105 5.105a4.418 4.418 0 0 0 1.806 4.362c2.495 1.76 2.495 5.46 0 7.22a4.418 4.418 0 0 0-1.806 4.362c.52 3.008-2.097 5.624-5.105 5.105a4.418 4.418 0 0 0-4.362 1.806c-1.76 2.495-5.46 2.495-7.22 0a4.418 4.418 0 0 0-4.362-1.806c-3.008.52-5.624-2.097-5.105-5.105a4.418 4.418 0 0 0-1.806-4.362c-2.495-1.76-2.495-5.46 0-7.22a4.418 4.418 0 0 0 1.806-4.362c-.52-3.008 2.097-5.624 5.105-5.105a4.418 4.418 0 0 0 4.362-1.806z" fill="#4285F4"/><path d="M16.59 23.937l-4.473-4.408-1.492 1.47 5.966 5.876 12.784-12.593-1.491-1.47L16.59 23.938z" fill="#fff"/></svg>